<mxfile host="app.diagrams.net" modified="2023-03-11T15:34:59.834Z" agent="5.0 (X11; Linux x86_64) AppleWebKit/537.36 (KHTML, like Gecko) Chrome/110.0.0.0 Safari/537.36" etag="PZIomOPvW-PjJ-K1dDcP" version="21.0.6" type="github">
  <diagram name="Page-1" id="XPsEhaVmD4LxFUibNrj5">
    <mxGraphModel dx="2284" dy="1875" grid="1" gridSize="10" guides="1" tooltips="1" connect="1" arrows="1" fold="1" page="1" pageScale="1" pageWidth="850" pageHeight="1100" math="0" shadow="0">
      <root>
        <mxCell id="0" />
        <mxCell id="1" parent="0" />
        <mxCell id="vwFbI64DFWH7WejsQwX_-11" value="" style="swimlane;startSize=0;movable=1;resizable=1;rotatable=1;deletable=1;editable=1;locked=0;connectable=1;" vertex="1" parent="1">
          <mxGeometry x="600" y="-20" width="200" height="200" as="geometry" />
        </mxCell>
        <mxCell id="vwFbI64DFWH7WejsQwX_-10" value="Authentication and authorization service" style="rounded=1;whiteSpace=wrap;html=1;" vertex="1" parent="vwFbI64DFWH7WejsQwX_-11">
          <mxGeometry x="5" y="40" width="120" height="60" as="geometry" />
        </mxCell>
        <mxCell id="vwFbI64DFWH7WejsQwX_-12" value="Security" style="text;html=1;align=center;verticalAlign=middle;resizable=1;points=[];autosize=1;strokeColor=none;fillColor=none;movable=1;rotatable=1;deletable=1;editable=1;locked=0;connectable=1;" vertex="1" parent="vwFbI64DFWH7WejsQwX_-11">
          <mxGeometry width="70" height="30" as="geometry" />
        </mxCell>
        <mxCell id="vwFbI64DFWH7WejsQwX_-13" value="" style="swimlane;startSize=0;" vertex="1" parent="1">
          <mxGeometry x="600" y="200" width="230" height="200" as="geometry" />
        </mxCell>
        <mxCell id="vwFbI64DFWH7WejsQwX_-7" value="Management service for grades and feedback from teachers" style="rounded=1;whiteSpace=wrap;html=1;" vertex="1" parent="vwFbI64DFWH7WejsQwX_-13">
          <mxGeometry x="10" y="80" width="120" height="60" as="geometry" />
        </mxCell>
        <mxCell id="vwFbI64DFWH7WejsQwX_-4" value="Customer support management service" style="rounded=1;whiteSpace=wrap;html=1;" vertex="1" parent="vwFbI64DFWH7WejsQwX_-13">
          <mxGeometry x="10" y="10" width="120" height="60" as="geometry" />
        </mxCell>
        <mxCell id="vwFbI64DFWH7WejsQwX_-14" value="Customer care&amp;nbsp;" style="text;html=1;align=center;verticalAlign=middle;resizable=0;points=[];autosize=1;strokeColor=none;fillColor=none;" vertex="1" parent="vwFbI64DFWH7WejsQwX_-13">
          <mxGeometry x="120" width="110" height="30" as="geometry" />
        </mxCell>
        <mxCell id="vwFbI64DFWH7WejsQwX_-15" value="" style="swimlane;startSize=0;" vertex="1" parent="1">
          <mxGeometry x="-480" width="980" height="380" as="geometry" />
        </mxCell>
        <mxCell id="vwFbI64DFWH7WejsQwX_-16" value="Platform core" style="text;html=1;align=center;verticalAlign=middle;resizable=0;points=[];autosize=1;strokeColor=none;fillColor=none;" vertex="1" parent="vwFbI64DFWH7WejsQwX_-15">
          <mxGeometry x="10" width="90" height="30" as="geometry" />
        </mxCell>
        <mxCell id="vwFbI64DFWH7WejsQwX_-38" value="" style="swimlane;startSize=0;" vertex="1" parent="vwFbI64DFWH7WejsQwX_-15">
          <mxGeometry width="250" height="380" as="geometry" />
        </mxCell>
        <mxCell id="vwFbI64DFWH7WejsQwX_-21" value="Teacher management service" style="rounded=1;whiteSpace=wrap;html=1;" vertex="1" parent="vwFbI64DFWH7WejsQwX_-38">
          <mxGeometry x="10" y="30" width="120" height="60" as="geometry" />
        </mxCell>
        <mxCell id="vwFbI64DFWH7WejsQwX_-6" value="Course materials of teachers management service" style="rounded=1;whiteSpace=wrap;html=1;" vertex="1" parent="vwFbI64DFWH7WejsQwX_-38">
          <mxGeometry x="10" y="100" width="120" height="60" as="geometry" />
        </mxCell>
        <mxCell id="vwFbI64DFWH7WejsQwX_-39" value="" style="swimlane;startSize=0;" vertex="1" parent="vwFbI64DFWH7WejsQwX_-15">
          <mxGeometry x="250" width="250" height="380" as="geometry" />
        </mxCell>
        <mxCell id="vwFbI64DFWH7WejsQwX_-42" value="student" style="text;html=1;align=center;verticalAlign=middle;resizable=0;points=[];autosize=1;strokeColor=none;fillColor=none;" vertex="1" parent="vwFbI64DFWH7WejsQwX_-39">
          <mxGeometry x="185" width="60" height="30" as="geometry" />
        </mxCell>
        <mxCell id="vwFbI64DFWH7WejsQwX_-31" value="User profile management service" style="rounded=1;whiteSpace=wrap;html=1;" vertex="1" parent="vwFbI64DFWH7WejsQwX_-39">
          <mxGeometry x="-60" y="30" width="120" height="60" as="geometry" />
        </mxCell>
        <mxCell id="vwFbI64DFWH7WejsQwX_-2" value="Schedule management service" style="rounded=1;whiteSpace=wrap;html=1;" vertex="1" parent="vwFbI64DFWH7WejsQwX_-39">
          <mxGeometry x="-60" y="100" width="120" height="60" as="geometry" />
        </mxCell>
        <mxCell id="vwFbI64DFWH7WejsQwX_-40" value="" style="swimlane;startSize=0;" vertex="1" parent="vwFbI64DFWH7WejsQwX_-15">
          <mxGeometry x="500" width="250" height="380" as="geometry" />
        </mxCell>
        <mxCell id="vwFbI64DFWH7WejsQwX_-43" value="course" style="text;html=1;align=center;verticalAlign=middle;resizable=0;points=[];autosize=1;strokeColor=none;fillColor=none;" vertex="1" parent="vwFbI64DFWH7WejsQwX_-40">
          <mxGeometry x="190" width="60" height="30" as="geometry" />
        </mxCell>
        <mxCell id="vwFbI64DFWH7WejsQwX_-45" value="lesson" style="text;html=1;align=center;verticalAlign=middle;resizable=0;points=[];autosize=1;strokeColor=none;fillColor=none;" vertex="1" parent="vwFbI64DFWH7WejsQwX_-15">
          <mxGeometry x="920" width="60" height="30" as="geometry" />
        </mxCell>
        <mxCell id="vwFbI64DFWH7WejsQwX_-35" value="Lesson management service" style="rounded=1;whiteSpace=wrap;html=1;" vertex="1" parent="vwFbI64DFWH7WejsQwX_-15">
          <mxGeometry x="830" y="40" width="120" height="60" as="geometry" />
        </mxCell>
        <mxCell id="vwFbI64DFWH7WejsQwX_-1" value="Multimedia content management service (supporting streaming)" style="rounded=1;whiteSpace=wrap;html=1;" vertex="1" parent="vwFbI64DFWH7WejsQwX_-15">
          <mxGeometry x="690" y="40" width="120" height="60" as="geometry" />
        </mxCell>
        <mxCell id="vwFbI64DFWH7WejsQwX_-17" value="" style="swimlane;startSize=0;" vertex="1" parent="1">
          <mxGeometry x="-240" y="400" width="200" height="200" as="geometry" />
        </mxCell>
        <mxCell id="vwFbI64DFWH7WejsQwX_-18" value="Third-party service integration&lt;br&gt;" style="text;html=1;align=center;verticalAlign=middle;resizable=0;points=[];autosize=1;strokeColor=none;fillColor=none;" vertex="1" parent="vwFbI64DFWH7WejsQwX_-17">
          <mxGeometry width="180" height="30" as="geometry" />
        </mxCell>
        <mxCell id="vwFbI64DFWH7WejsQwX_-8" value="Service for managing advertising platforms and affiliate programs" style="rounded=1;whiteSpace=wrap;html=1;" vertex="1" parent="vwFbI64DFWH7WejsQwX_-17">
          <mxGeometry x="10" y="40" width="120" height="60" as="geometry" />
        </mxCell>
        <mxCell id="vwFbI64DFWH7WejsQwX_-19" value="" style="swimlane;startSize=0;" vertex="1" parent="1">
          <mxGeometry x="40" y="400" width="280" height="200" as="geometry" />
        </mxCell>
        <mxCell id="vwFbI64DFWH7WejsQwX_-9" value="Refund request management service" style="rounded=1;whiteSpace=wrap;html=1;" vertex="1" parent="vwFbI64DFWH7WejsQwX_-19">
          <mxGeometry x="5" y="40" width="120" height="60" as="geometry" />
        </mxCell>
        <mxCell id="vwFbI64DFWH7WejsQwX_-20" value="Money management" style="text;html=1;align=center;verticalAlign=middle;resizable=0;points=[];autosize=1;strokeColor=none;fillColor=none;" vertex="1" parent="vwFbI64DFWH7WejsQwX_-19">
          <mxGeometry width="130" height="30" as="geometry" />
        </mxCell>
        <mxCell id="vwFbI64DFWH7WejsQwX_-23" value="Payment and subscription management service" style="rounded=1;whiteSpace=wrap;html=1;" vertex="1" parent="vwFbI64DFWH7WejsQwX_-19">
          <mxGeometry x="5" y="110" width="120" height="60" as="geometry" />
        </mxCell>
        <mxCell id="vwFbI64DFWH7WejsQwX_-24" value="" style="swimlane;startSize=0;" vertex="1" parent="1">
          <mxGeometry x="600" y="440" width="230" height="190" as="geometry" />
        </mxCell>
        <mxCell id="vwFbI64DFWH7WejsQwX_-25" value="Analytics" style="text;html=1;align=center;verticalAlign=middle;resizable=0;points=[];autosize=1;strokeColor=none;fillColor=none;" vertex="1" parent="vwFbI64DFWH7WejsQwX_-24">
          <mxGeometry x="-10" width="70" height="30" as="geometry" />
        </mxCell>
        <mxCell id="vwFbI64DFWH7WejsQwX_-26" value="SEO and marketing management service" style="rounded=1;whiteSpace=wrap;html=1;" vertex="1" parent="vwFbI64DFWH7WejsQwX_-24">
          <mxGeometry x="10" y="30" width="120" height="60" as="geometry" />
        </mxCell>
        <mxCell id="vwFbI64DFWH7WejsQwX_-27" value="Discount and promo code management service" style="rounded=1;whiteSpace=wrap;html=1;" vertex="1" parent="1">
          <mxGeometry x="180" y="510" width="120" height="60" as="geometry" />
        </mxCell>
        <mxCell id="vwFbI64DFWH7WejsQwX_-33" value="" style="swimlane;startSize=0;" vertex="1" parent="1">
          <mxGeometry x="-480" y="-210" width="250" height="200" as="geometry" />
        </mxCell>
        <mxCell id="vwFbI64DFWH7WejsQwX_-34" value="Admining and moderation" style="text;html=1;align=center;verticalAlign=middle;resizable=0;points=[];autosize=1;strokeColor=none;fillColor=none;" vertex="1" parent="vwFbI64DFWH7WejsQwX_-33">
          <mxGeometry width="160" height="30" as="geometry" />
        </mxCell>
        <mxCell id="vwFbI64DFWH7WejsQwX_-32" value="Course category management service" style="rounded=1;whiteSpace=wrap;html=1;" vertex="1" parent="vwFbI64DFWH7WejsQwX_-33">
          <mxGeometry x="10" y="30" width="120" height="60" as="geometry" />
        </mxCell>
        <mxCell id="vwFbI64DFWH7WejsQwX_-28" value="Mailing and notification management service" style="rounded=1;whiteSpace=wrap;html=1;" vertex="1" parent="1">
          <mxGeometry x="630" y="-190" width="120" height="60" as="geometry" />
        </mxCell>
        <mxCell id="vwFbI64DFWH7WejsQwX_-5" value="Course management service" style="rounded=1;whiteSpace=wrap;html=1;" vertex="1" parent="1">
          <mxGeometry x="300" y="-110" width="120" height="60" as="geometry" />
        </mxCell>
        <mxCell id="vwFbI64DFWH7WejsQwX_-41" value="teacher" style="text;html=1;align=center;verticalAlign=middle;resizable=0;points=[];autosize=1;strokeColor=none;fillColor=none;" vertex="1" parent="1">
          <mxGeometry x="-285" width="60" height="30" as="geometry" />
        </mxCell>
      </root>
    </mxGraphModel>
  </diagram>
</mxfile>
